<?xml version="1.0" encoding="UTF-8" standalone="no"?>
<!DOCTYPE svg PUBLIC "-//W3C//DTD SVG 1.1//EN"
 "http://www.w3.org/Graphics/SVG/1.1/DTD/svg11.dtd">
<!-- Generated by graphviz version 2.44.1 (20200629.0846)
 -->
<!-- Pages: 1 -->
<svg width="834pt" height="332pt"
 viewBox="0.00 0.00 833.61 332.00" xmlns="http://www.w3.org/2000/svg" xmlns:xlink="http://www.w3.org/1999/xlink">
<g id="graph0" class="graph" transform="scale(1 1) rotate(0) translate(4 328)">
<polygon fill="white" stroke="transparent" points="-4,4 -4,-328 829.61,-328 829.61,4 -4,4"/>
<!-- [root] aws_instance.example (expand) -->
<g id="node1" class="node">
<title>[root] aws_instance.example (expand)</title>
<polygon fill="none" stroke="black" points="456.63,-180 317.63,-180 317.63,-144 456.63,-144 456.63,-180"/>
<text text-anchor="middle" x="387.13" y="-158.3" font-family="Times,serif" font-size="14.00">aws_instance.example</text>
</g>
<!-- [root] aws_security_group.instance (expand) -->
<g id="node2" class="node">
<title>[root] aws_security_group.instance (expand)</title>
<polygon fill="none" stroke="black" points="473.63,-108 300.63,-108 300.63,-72 473.63,-72 473.63,-108"/>
<text text-anchor="middle" x="387.13" y="-86.3" font-family="Times,serif" font-size="14.00">aws_security_group.instance</text>
</g>
<!-- [root] aws_instance.example (expand)&#45;&gt;[root] aws_security_group.instance (expand) -->
<g id="edge1" class="edge">
<title>[root] aws_instance.example (expand)&#45;&gt;[root] aws_security_group.instance (expand)</title>
<path fill="none" stroke="black" d="M387.13,-143.7C387.13,-135.98 387.13,-126.71 387.13,-118.11"/>
<polygon fill="black" stroke="black" points="390.63,-118.1 387.13,-108.1 383.63,-118.1 390.63,-118.1"/>
</g>
<!-- [root] provider[&quot;registry.terraform.io/hashicorp/aws&quot;] -->
<g id="node3" class="node">
<title>[root] provider[&quot;registry.terraform.io/hashicorp/aws&quot;]</title>
<polygon fill="none" stroke="black" points="387.13,-36 134.6,-18 387.13,0 639.67,-18 387.13,-36"/>
<text text-anchor="middle" x="387.13" y="-14.3" font-family="Times,serif" font-size="14.00">provider[&quot;registry.terraform.io/hashicorp/aws&quot;]</text>
</g>
<!-- [root] aws_security_group.instance (expand)&#45;&gt;[root] provider[&quot;registry.terraform.io/hashicorp/aws&quot;] -->
<g id="edge2" class="edge">
<title>[root] aws_security_group.instance (expand)&#45;&gt;[root] provider[&quot;registry.terraform.io/hashicorp/aws&quot;]</title>
<path fill="none" stroke="black" d="M387.13,-71.7C387.13,-63.98 387.13,-54.71 387.13,-46.11"/>
<polygon fill="black" stroke="black" points="390.63,-46.1 387.13,-36.1 383.63,-46.1 390.63,-46.1"/>
</g>
<!-- [root] meta.count&#45;boundary (EachMode fixup) -->
<g id="node4" class="node">
<title>[root] meta.count&#45;boundary (EachMode fixup)</title>
<ellipse fill="none" stroke="black" cx="176.13" cy="-234" rx="176.27" ry="18"/>
<text text-anchor="middle" x="176.13" y="-230.3" font-family="Times,serif" font-size="14.00">[root] meta.count&#45;boundary (EachMode fixup)</text>
</g>
<!-- [root] meta.count&#45;boundary (EachMode fixup)&#45;&gt;[root] aws_instance.example (expand) -->
<g id="edge3" class="edge">
<title>[root] meta.count&#45;boundary (EachMode fixup)&#45;&gt;[root] aws_instance.example (expand)</title>
<path fill="none" stroke="black" d="M225.34,-216.68C255.36,-206.72 293.97,-193.91 325.95,-183.3"/>
<polygon fill="black" stroke="black" points="327.26,-186.55 335.64,-180.08 325.05,-179.91 327.26,-186.55"/>
</g>
<!-- [root] provider[&quot;registry.terraform.io/hashicorp/aws&quot;] (close) -->
<g id="node5" class="node">
<title>[root] provider[&quot;registry.terraform.io/hashicorp/aws&quot;] (close)</title>
<ellipse fill="none" stroke="black" cx="598.13" cy="-234" rx="227.46" ry="18"/>
<text text-anchor="middle" x="598.13" y="-230.3" font-family="Times,serif" font-size="14.00">[root] provider[&quot;registry.terraform.io/hashicorp/aws&quot;] (close)</text>
</g>
<!-- [root] provider[&quot;registry.terraform.io/hashicorp/aws&quot;] (close)&#45;&gt;[root] aws_instance.example (expand) -->
<g id="edge4" class="edge">
<title>[root] provider[&quot;registry.terraform.io/hashicorp/aws&quot;] (close)&#45;&gt;[root] aws_instance.example (expand)</title>
<path fill="none" stroke="black" d="M548.13,-216.41C518.2,-206.48 479.94,-193.79 448.23,-183.27"/>
<polygon fill="black" stroke="black" points="449.21,-179.91 438.61,-180.08 447,-186.55 449.21,-179.91"/>
</g>
<!-- [root] root -->
<g id="node6" class="node">
<title>[root] root</title>
<ellipse fill="none" stroke="black" cx="387.13" cy="-306" rx="47.39" ry="18"/>
<text text-anchor="middle" x="387.13" y="-302.3" font-family="Times,serif" font-size="14.00">[root] root</text>
</g>
<!-- [root] root&#45;&gt;[root] meta.count&#45;boundary (EachMode fixup) -->
<g id="edge5" class="edge">
<title>[root] root&#45;&gt;[root] meta.count&#45;boundary (EachMode fixup)</title>
<path fill="none" stroke="black" d="M352.29,-293.44C320.49,-282.89 272.83,-267.08 235.1,-254.56"/>
<polygon fill="black" stroke="black" points="235.83,-251.12 225.24,-251.29 233.63,-257.76 235.83,-251.12"/>
</g>
<!-- [root] root&#45;&gt;[root] provider[&quot;registry.terraform.io/hashicorp/aws&quot;] (close) -->
<g id="edge6" class="edge">
<title>[root] root&#45;&gt;[root] provider[&quot;registry.terraform.io/hashicorp/aws&quot;] (close)</title>
<path fill="none" stroke="black" d="M421.98,-293.44C453.46,-283 500.48,-267.4 538.02,-254.94"/>
<polygon fill="black" stroke="black" points="539.45,-258.16 547.84,-251.68 537.25,-251.51 539.45,-258.16"/>
</g>
</g>
</svg>
